<mxfile host="Electron" modified="2023-12-02T13:53:31.835Z" agent="Mozilla/5.0 (Macintosh; Intel Mac OS X 10_15_7) AppleWebKit/537.36 (KHTML, like Gecko) draw.io/21.2.8 Chrome/112.0.5615.165 Electron/24.2.0 Safari/537.36" etag="TDZGmk5kfTsu2PIACbtC" version="21.2.8" type="device">
  <diagram name="Page-1" id="Nri2OD0OuROarQ_QcxYa">
    <mxGraphModel dx="775" dy="490" grid="1" gridSize="10" guides="1" tooltips="1" connect="1" arrows="1" fold="1" page="1" pageScale="1" pageWidth="827" pageHeight="1169" math="0" shadow="0">
      <root>
        <mxCell id="0" />
        <mxCell id="1" parent="0" />
        <mxCell id="mS0oR2TUmYoJY3XWw1kZ-18" style="edgeStyle=orthogonalEdgeStyle;rounded=0;orthogonalLoop=1;jettySize=auto;html=1;exitX=1;exitY=0.25;exitDx=0;exitDy=0;entryX=-0.007;entryY=0.607;entryDx=0;entryDy=0;entryPerimeter=0;endArrow=classic;endFill=1;startArrow=none;startFill=0;" edge="1" parent="1" source="mS0oR2TUmYoJY3XWw1kZ-1" target="mS0oR2TUmYoJY3XWw1kZ-17">
          <mxGeometry relative="1" as="geometry" />
        </mxCell>
        <mxCell id="mS0oR2TUmYoJY3XWw1kZ-23" style="edgeStyle=orthogonalEdgeStyle;rounded=0;orthogonalLoop=1;jettySize=auto;html=1;exitX=1;exitY=0.75;exitDx=0;exitDy=0;startArrow=none;startFill=0;" edge="1" parent="1" source="mS0oR2TUmYoJY3XWw1kZ-1" target="mS0oR2TUmYoJY3XWw1kZ-21">
          <mxGeometry relative="1" as="geometry" />
        </mxCell>
        <mxCell id="mS0oR2TUmYoJY3XWw1kZ-27" style="edgeStyle=orthogonalEdgeStyle;rounded=0;orthogonalLoop=1;jettySize=auto;html=1;exitX=0;exitY=0.25;exitDx=0;exitDy=0;entryX=1;entryY=0.5;entryDx=0;entryDy=0;endArrow=none;endFill=0;startArrow=classic;startFill=1;" edge="1" parent="1" source="mS0oR2TUmYoJY3XWw1kZ-1" target="mS0oR2TUmYoJY3XWw1kZ-26">
          <mxGeometry relative="1" as="geometry" />
        </mxCell>
        <mxCell id="mS0oR2TUmYoJY3XWw1kZ-1" value="&lt;b&gt;CORE&lt;br&gt;MODULE&lt;/b&gt;" style="shape=hexagon;perimeter=hexagonPerimeter2;whiteSpace=wrap;html=1;fixedSize=1;size=20;fillColor=#dae8fc;strokeColor=#6c8ebf;" vertex="1" parent="1">
          <mxGeometry x="380" y="410" width="120" height="110" as="geometry" />
        </mxCell>
        <mxCell id="mS0oR2TUmYoJY3XWw1kZ-30" style="edgeStyle=orthogonalEdgeStyle;rounded=0;orthogonalLoop=1;jettySize=auto;html=1;exitX=0.5;exitY=0;exitDx=0;exitDy=0;entryX=0;entryY=0.5;entryDx=0;entryDy=0;startArrow=none;startFill=0;" edge="1" parent="1" source="mS0oR2TUmYoJY3XWw1kZ-17" target="mS0oR2TUmYoJY3XWw1kZ-29">
          <mxGeometry relative="1" as="geometry" />
        </mxCell>
        <mxCell id="mS0oR2TUmYoJY3XWw1kZ-17" value="&lt;font style=&quot;font-size: 9px;&quot;&gt;Output Port&lt;/font&gt;" style="rounded=1;whiteSpace=wrap;html=1;fillColor=#d5e8d4;strokeColor=#82b366;" vertex="1" parent="1">
          <mxGeometry x="540" y="410" width="60" height="20" as="geometry" />
        </mxCell>
        <mxCell id="mS0oR2TUmYoJY3XWw1kZ-32" style="edgeStyle=orthogonalEdgeStyle;rounded=0;orthogonalLoop=1;jettySize=auto;html=1;exitX=0.5;exitY=1;exitDx=0;exitDy=0;entryX=0;entryY=0.5;entryDx=0;entryDy=0;startArrow=none;startFill=0;" edge="1" parent="1" source="mS0oR2TUmYoJY3XWw1kZ-21" target="mS0oR2TUmYoJY3XWw1kZ-31">
          <mxGeometry relative="1" as="geometry" />
        </mxCell>
        <mxCell id="mS0oR2TUmYoJY3XWw1kZ-21" value="&lt;font style=&quot;font-size: 9px;&quot;&gt;Output Port&lt;/font&gt;" style="rounded=1;whiteSpace=wrap;html=1;fillColor=#d5e8d4;strokeColor=#82b366;" vertex="1" parent="1">
          <mxGeometry x="540" y="500" width="60" height="20" as="geometry" />
        </mxCell>
        <mxCell id="mS0oR2TUmYoJY3XWw1kZ-25" style="edgeStyle=orthogonalEdgeStyle;rounded=0;orthogonalLoop=1;jettySize=auto;html=1;exitX=1;exitY=0.5;exitDx=0;exitDy=0;entryX=0;entryY=0.75;entryDx=0;entryDy=0;startArrow=none;startFill=0;endArrow=classic;endFill=1;" edge="1" parent="1" source="mS0oR2TUmYoJY3XWw1kZ-24" target="mS0oR2TUmYoJY3XWw1kZ-1">
          <mxGeometry relative="1" as="geometry" />
        </mxCell>
        <mxCell id="mS0oR2TUmYoJY3XWw1kZ-34" style="edgeStyle=orthogonalEdgeStyle;rounded=0;orthogonalLoop=1;jettySize=auto;html=1;exitX=0.5;exitY=1;exitDx=0;exitDy=0;entryX=1;entryY=0.5;entryDx=0;entryDy=0;startArrow=classic;startFill=1;endArrow=none;endFill=0;" edge="1" parent="1" source="mS0oR2TUmYoJY3XWw1kZ-24" target="mS0oR2TUmYoJY3XWw1kZ-33">
          <mxGeometry relative="1" as="geometry" />
        </mxCell>
        <mxCell id="mS0oR2TUmYoJY3XWw1kZ-24" value="&lt;font style=&quot;font-size: 9px;&quot;&gt;Input&amp;nbsp;Port&lt;/font&gt;" style="rounded=1;whiteSpace=wrap;html=1;fillColor=#d5e8d4;strokeColor=#82b366;" vertex="1" parent="1">
          <mxGeometry x="280" y="500" width="60" height="20" as="geometry" />
        </mxCell>
        <mxCell id="mS0oR2TUmYoJY3XWw1kZ-36" style="edgeStyle=orthogonalEdgeStyle;rounded=0;orthogonalLoop=1;jettySize=auto;html=1;exitX=0.5;exitY=0;exitDx=0;exitDy=0;entryX=1;entryY=0.5;entryDx=0;entryDy=0;startArrow=classic;startFill=1;endArrow=none;endFill=0;" edge="1" parent="1" source="mS0oR2TUmYoJY3XWw1kZ-26" target="mS0oR2TUmYoJY3XWw1kZ-35">
          <mxGeometry relative="1" as="geometry" />
        </mxCell>
        <mxCell id="mS0oR2TUmYoJY3XWw1kZ-26" value="&lt;font style=&quot;font-size: 9px;&quot;&gt;Input Port&lt;/font&gt;" style="rounded=1;whiteSpace=wrap;html=1;fillColor=#d5e8d4;strokeColor=#82b366;" vertex="1" parent="1">
          <mxGeometry x="280" y="410" width="60" height="20" as="geometry" />
        </mxCell>
        <mxCell id="mS0oR2TUmYoJY3XWw1kZ-29" value="&lt;font style=&quot;font-size: 9px;&quot;&gt;DB Adapter&lt;/font&gt;" style="rounded=1;whiteSpace=wrap;html=1;fillColor=#f8cecc;strokeColor=#b85450;" vertex="1" parent="1">
          <mxGeometry x="630" y="370" width="70" height="20" as="geometry" />
        </mxCell>
        <mxCell id="mS0oR2TUmYoJY3XWw1kZ-31" value="&lt;font style=&quot;font-size: 9px;&quot;&gt;Stream Adapter&lt;/font&gt;" style="rounded=1;whiteSpace=wrap;html=1;fillColor=#f8cecc;strokeColor=#b85450;" vertex="1" parent="1">
          <mxGeometry x="630" y="540" width="70" height="20" as="geometry" />
        </mxCell>
        <mxCell id="mS0oR2TUmYoJY3XWw1kZ-33" value="&lt;font style=&quot;font-size: 9px;&quot;&gt;API adapter&lt;/font&gt;" style="rounded=1;whiteSpace=wrap;html=1;fillColor=#f8cecc;strokeColor=#b85450;" vertex="1" parent="1">
          <mxGeometry x="180" y="540" width="70" height="20" as="geometry" />
        </mxCell>
        <mxCell id="mS0oR2TUmYoJY3XWw1kZ-35" value="&lt;font style=&quot;font-size: 9px;&quot;&gt;Stream Adapter&lt;/font&gt;" style="rounded=1;whiteSpace=wrap;html=1;fillColor=#f8cecc;strokeColor=#b85450;" vertex="1" parent="1">
          <mxGeometry x="180" y="370" width="70" height="20" as="geometry" />
        </mxCell>
      </root>
    </mxGraphModel>
  </diagram>
</mxfile>
